<?xml version="1.0" encoding="UTF-8" standalone="no"?>
<!-- Created with Inkscape (http://www.inkscape.org/) -->

<svg
   xmlns:dc="http://purl.org/dc/elements/1.1/"
   xmlns:cc="http://creativecommons.org/ns#"
   xmlns:rdf="http://www.w3.org/1999/02/22-rdf-syntax-ns#"
   xmlns:svg="http://www.w3.org/2000/svg"
   xmlns="http://www.w3.org/2000/svg"
   xmlns:sodipodi="http://sodipodi.sourceforge.net/DTD/sodipodi-0.dtd"
   xmlns:inkscape="http://www.inkscape.org/namespaces/inkscape"
   width="210mm"
   height="297mm"
   viewBox="0 0 744.09448819 1052.3622047"
   id="svg3365"
   version="1.1"
   inkscape:version="0.91 r13725"
   sodipodi:docname="vectorizada.svg">
  <defs
     id="defs3367" />
  <sodipodi:namedview
     id="base"
     pagecolor="#ffffff"
     bordercolor="#666666"
     borderopacity="1.0"
     inkscape:pageopacity="0.0"
     inkscape:pageshadow="2"
     inkscape:zoom="0.7"
     inkscape:cx="291.25246"
     inkscape:cy="694.50723"
     inkscape:document-units="px"
     inkscape:current-layer="layer1"
     showgrid="false"
     inkscape:window-width="1440"
     inkscape:window-height="838"
     inkscape:window-x="-8"
     inkscape:window-y="-8"
     inkscape:window-maximized="1" />
  <metadata
     id="metadata3370">
    <rdf:RDF>
      <cc:Work
         rdf:about="">
        <dc:format>image/svg+xml</dc:format>
        <dc:type
           rdf:resource="http://purl.org/dc/dcmitype/StillImage" />
        <dc:title></dc:title>
      </cc:Work>
    </rdf:RDF>
  </metadata>
  <g
     inkscape:label="Capa 1"
     inkscape:groupmode="layer"
     id="layer1">
    <path
       style="fill:#000000"
       d="m 371.28203,950.09022 c -41.26827,-21.96889 -63.78024,-45.15874 -88.45795,-91.12154 -11.89215,-22.14946 -32.89456,-58.70001 -46.67206,-81.22355 -13.77743,-22.52348 -30.1305,-58.29714 -36.34013,-79.497 C 193.6022,677.04822 168.96416,630.66776 145.06055,595.18039 52.588586,457.89573 -9.9047883,264.06634 9.1123221,173.52334 21.433439,114.86104 51.655258,75.764845 100.26225,55.6082 c 22.70388,-9.41496 41.27981,-21.120848 41.27981,-26.013076 0,-4.892134 10.42198,-15.052778 23.16,-22.5791914 30.89959,-18.2575046 64.82941,1.4476564 77.47425,44.9940224 24.5506,84.547525 -51.01678,156.358625 -96.40535,91.613225 -25.58508,-36.4964 -81.428823,16.50692 -81.428823,77.28708 0,92.68193 111.912483,329.37664 180.148393,381.0135 l 36.01142,27.25131 36.01144,-27.25131 C 384.74932,550.2869 496.6618,313.59219 496.6618,220.91026 c 0,-60.78016 -55.84375,-113.78348 -81.4289,-77.28708 -45.38849,64.7454 -120.95591,-7.0657 -96.40527,-91.613225 12.64481,-43.546366 46.57464,-63.251527 77.47424,-44.9940224 12.738,7.5264134 23.15998,17.6870574 23.15998,22.5791914 0,4.892228 18.57595,16.598116 41.27983,26.013076 68.4782,28.397021 104.84834,103.28771 94.59232,194.77776 -10.69359,95.39417 -73.49645,249.69579 -144.24559,354.40004 -20.45368,30.27019 -40.92077,70.30888 -45.48238,88.97483 -4.56161,18.66599 -17.51868,47.67317 -28.7935,64.46039 l -20.49969,30.52224 18.76454,29.02428 c 52.67225,81.47132 143.07332,77.27127 205.97441,-9.56969 27.68176,-38.21736 30.66287,-54.06127 13.90484,-73.9005 -6.15178,-7.28287 -15.18091,-30.51266 -20.06472,-51.62166 -33.37179,-144.24096 87.88127,-260.7149 169.46714,-162.78781 64.31614,77.19833 41.11528,226.51335 -40.35632,259.72361 -22.2242,9.05928 -42.70527,29.78732 -65.92201,66.71704 C 537.4176,942.82238 440.72699,987.05889 371.28203,950.09022 Z M 667.82381,682.56776 c 29.29262,-37.81496 8.67566,-113.9227 -30.86074,-113.9227 -41.29434,0 -62.58219,68.35188 -34.88486,112.00932 15.90835,25.0752 47.10051,25.98302 65.7456,1.91338 z"
       id="path3384"
       inkscape:connector-curvature="0" />
  </g>
</svg>
